<svg xmlns="http://www.w3.org/2000/svg" xmlns:xlink="http://www.w3.org/1999/xlink" width="500" zoomAndPan="magnify" viewBox="0 0 375 225" height="300" preserveAspectRatio="xMidYMid meet" version="1.0"><defs><g/><clipPath id="16c68d7d47"><path d="M 20 8.640625 L 344 8.640625 L 344 224 L 20 224 Z M 20 8.640625 " clip-rule="nonzero"/></clipPath></defs><path fill="#343a40" d="M 312.8125 46.332031 C 318.554688 47.824219 322.800781 49.792969 325.003906 52.152344 C 340.816406 69.617188 354.582031 98.328125 337.90625 135.851562 C 321.230469 173.296875 236.347656 199.570312 198.824219 201.222656 C 161.382812 202.875 105.136719 197.449219 105.136719 197.449219 C 105.136719 197.449219 90.582031 212.867188 82.242188 209.484375 C 80.75 208.855469 79.410156 207.515625 78.390625 205.472656 L 78.152344 205.628906 C 74.847656 207.515625 68.949219 210.820312 65.09375 210.820312 C 64.308594 210.820312 63.601562 210.664062 62.8125 210.425781 C 58.015625 208.539062 57.621094 201.695312 57.542969 197.367188 C 57.542969 191.390625 58.25 185.097656 59.039062 179.199219 C 59.667969 174.632812 60.453125 169.992188 61.242188 165.429688 C 54.554688 160.710938 48.652344 154.730469 44.957031 147.335938 C 37.089844 131.605469 31.664062 113.746094 34.808594 96.046875 C 39.371094 70.71875 59.667969 54.277344 81.613281 43.421875 C 94.988281 36.8125 111.585938 32.878906 126.21875 30.125 C 145.019531 26.664062 164.371094 24.699219 183.484375 23.597656 C 196.308594 22.890625 209.210938 22.574219 222.03125 22.730469 C 233.753906 22.890625 245.476562 23.441406 257.117188 24.542969 C 269.625 25.800781 293.773438 28.789062 303.84375 36.734375 C 307.148438 39.488281 310.136719 42.792969 312.8125 46.332031 Z M 312.8125 46.332031 " fill-opacity="1" fill-rule="evenodd"/><g clip-path="url(#16c68d7d47)"><path fill="#dc3545" d="M 46.292969 171.171875 C 40.707031 166.140625 35.988281 160.316406 32.683594 153.632812 C 27.570312 143.40625 23.558594 132.46875 21.59375 121.222656 C 19.863281 111.386719 19.785156 101.320312 21.828125 91.484375 C 22.617188 87.789062 27.257812 88.730469 26.550781 92.429688 C 22.378906 112.644531 27.964844 133.414062 37.011719 151.507812 C 40.316406 158.035156 44.957031 163.699219 50.542969 168.5 L 51.566406 169.363281 L 51.328125 170.703125 C 50.933594 173.140625 50.542969 175.578125 50.226562 178.015625 C 49.441406 183.679688 48.652344 189.421875 48.574219 195.167969 C 48.417969 204.371094 49.992188 215.304688 59.667969 219.082031 C 63.207031 220.496094 61.476562 224.902344 57.9375 223.566406 C 54.394531 222.148438 51.40625 219.945312 49.125 216.878906 C 41.339844 206.496094 43.777344 189.34375 45.507812 177.308594 C 45.664062 175.265625 45.902344 173.21875 46.292969 171.171875 Z M 182.699219 9.671875 C 191.902344 9.121094 201.105469 8.886719 210.3125 8.808594 C 222.109375 8.730469 233.988281 8.964844 245.789062 9.671875 C 264.433594 10.851562 297.550781 14 312.578125 25.878906 C 331.847656 41.140625 342.625 71.109375 343.886719 95.105469 C 344.121094 98.878906 339.324219 99.117188 339.085938 95.339844 C 337.90625 72.761719 327.757812 44.050781 309.585938 29.65625 C 286.773438 11.5625 212.042969 12.820312 182.9375 14.472656 C 179.160156 14.707031 178.921875 9.910156 182.699219 9.671875 Z M 182.699219 9.671875 " fill-opacity="1" fill-rule="evenodd"/></g><path fill="#ffc107" d="M 153.828125 186.277344 C 153.828125 186.277344 132.746094 185.492188 109.148438 180.0625 C 95.382812 189.972656 71.308594 206.652344 65.171875 206.652344 C 58.800781 206.652344 63.207031 178.726562 66.117188 163.464844 C 58.644531 158.585938 52.507812 152.609375 48.890625 145.449219 C 30.167969 108.003906 33.078125 72.210938 83.425781 47.195312 C 133.769531 22.179688 277.019531 21 301.167969 40.117188 C 325.320312 59.3125 345.773438 130.503906 290.785156 158.824219 C 235.796875 187.140625 153.828125 186.277344 153.828125 186.277344 Z M 153.828125 186.277344 " fill-opacity="1" fill-rule="evenodd"/><path fill="#007bff" d="M 309.273438 158.746094 C 316.195312 165.195312 340.738281 187.613281 345.773438 186.355469 C 351.59375 184.859375 353.246094 179.511719 348.917969 174.871094 C 344.515625 170.308594 314.386719 153.238281 311.945312 152.921875 C 306.046875 152.214844 305.496094 155.203125 309.273438 158.746094 Z M 38.269531 70.953125 C 38.269531 70.953125 16.792969 42.003906 9.714844 39.960938 C 2.632812 37.914062 0.984375 48.296875 14.277344 61.433594 C 27.570312 74.574219 31.976562 77.246094 35.515625 77.246094 C 39.058594 77.246094 38.269531 70.953125 38.269531 70.953125 Z M 44.71875 59.3125 C 44.71875 59.3125 39.136719 24.148438 34.730469 16.832031 C 30.324219 9.515625 22.851562 14.945312 21.828125 18.328125 C 20.804688 21.628906 36.382812 60.804688 40.789062 62.695312 C 45.113281 64.503906 44.71875 59.3125 44.71875 59.3125 Z M 323.039062 143.40625 C 334.761719 143.40625 370.238281 143.796875 371.96875 147.574219 C 374.015625 152.136719 372.363281 156.542969 370.472656 158.195312 C 368.820312 159.6875 328.546875 153.945312 319.027344 150.71875 C 313.363281 148.832031 316.980469 143.40625 323.039062 143.40625 Z M 323.039062 143.40625 " fill-opacity="1" fill-rule="evenodd"/><g fill="#ffffff" fill-opacity="1"><g transform="translate(98.051493, 137.904507)"><g><path d="M 17.453125 -47.65625 L 23.953125 -47.65625 C 29.6875 -47.65625 35.46875 -44.734375 36.234375 -38.890625 L 42.25 -39.953125 C 40.828125 -48.203125 32.796875 -53.796875 24.46875 -53.796875 L 17.234375 -53.796875 C -4.859375 -53.796875 -5.546875 -20.046875 19.28125 -20.046875 L 26.078125 -20.046875 C 30.171875 -20.046875 30.234375 -12.96875 26.078125 -12.96875 L 18.65625 -12.96875 C 16.84375 -13.109375 15.265625 -14.390625 14.71875 -16.03125 L 8.296875 -14.828125 C 9.125 -9.3125 14.421875 -6.609375 19.71875 -6.5 L 26.15625 -6.421875 C 32.21875 -6.421875 35.609375 -11 35.609375 -16.734375 C 35.609375 -21.578125 32.0625 -26.1875 25.015625 -26.1875 L 18.296875 -26.265625 C 3.90625 -26.328125 3.765625 -47.84375 17.453125 -47.65625 Z M 26.15625 -5.703125 L 19.796875 -5.765625 C 14.0625 -5.765625 8.296875 -8.734375 7.53125 -14.609375 L 1.34375 -13.546875 C 2.921875 -5.296875 10.953125 0.296875 19.28125 0.296875 L 24.65625 0.296875 C 36.671875 0.296875 42.875 -8.25 42.796875 -16.734375 C 42.65625 -25.125 36.453125 -33.453125 24.46875 -33.453125 L 17.671875 -33.453125 C 13.515625 -33.453125 13.515625 -40.5 17.671875 -40.5 L 25.09375 -40.5 C 26.921875 -40.4375 28.484375 -39.109375 29.03125 -37.46875 L 35.390625 -38.671875 C 34.625 -44.1875 29.328125 -47 24.03125 -47 L 17.390625 -47 C 4.75 -47.078125 4.96875 -27.09375 18.1875 -26.953125 L 25.015625 -26.953125 C 32.71875 -26.953125 36.296875 -21.875 36.296875 -16.734375 C 36.296875 -10.84375 33.484375 -5.703125 26.15625 -5.703125 Z M 26.15625 -5.703125 "/></g></g></g><g fill="#ffffff" fill-opacity="1"><g transform="translate(159.175816, 137.904507)"><g><path d="M 0.875 -43.53125 L 0.875 0 L 7.53125 0 L 7.5625 -43.015625 C 7.5625 -46.640625 10.5625 -47.921875 12.53125 -44.921875 L 25.96875 -24.140625 C 26.921875 -22.71875 27.609375 -22.90625 28.484375 -24.28125 L 41.890625 -44.921875 C 43.859375 -47.921875 46.828125 -46.640625 46.828125 -43.015625 L 46.828125 0 L 53.546875 0 L 53.5 -43.53125 C 53.5 -56.3125 40.609375 -56.390625 36.8125 -49.921875 L 27.171875 -33.484375 L 17.5625 -49.921875 C 13.8125 -56.390625 0.90625 -56.3125 0.875 -43.53125 Z M 39.375 0 L 46.015625 0 L 45.984375 -43.015625 C 45.984375 -46.203125 43.75 -46.453125 42.46875 -44.453125 L 29.140625 -23.78125 C 27.96875 -21.84375 26.484375 -21.84375 25.265625 -23.734375 L 11.9375 -44.453125 C 10.625 -46.453125 8.359375 -46.203125 8.359375 -43.015625 L 8.359375 0 L 15.046875 0 L 14.359375 -28.59375 L 21.328125 -17.640625 C 24.578125 -12.484375 29.46875 -12.53125 32.9375 -17.5 L 40.25 -29.578125 Z M 39.375 0 "/></g></g></g><g fill="#ffffff" fill-opacity="1"><g transform="translate(232.022771, 137.904507)"><g><path d="M 28.40625 -53.875 C 13.296875 -53.875 1.203125 -41.75 1.203125 -26.734375 C 1.203125 -11.6875 13.296875 0.40625 28.40625 0.40625 C 33.671875 0.40625 38.640625 -1.09375 42.90625 -3.796875 L 39.625 -9.609375 C 36.375 -7.34375 32.46875 -6.203125 28.40625 -6.203125 C 17.0625 -6.203125 7.8125 -15.375 7.8125 -26.734375 C 7.8125 -38.09375 17.0625 -47.265625 28.40625 -47.265625 C 32.46875 -47.265625 36.375 -46.125 39.625 -43.859375 L 42.90625 -49.75 C 38.640625 -52.375 33.671875 -53.875 28.40625 -53.875 Z M 28.40625 -46.5625 C 17.421875 -46.5625 8.515625 -37.625 8.515625 -26.734375 C 8.515625 -15.8125 17.421875 -6.90625 28.40625 -6.90625 C 32.390625 -6.90625 36.15625 -8.109375 39.21875 -10.1875 L 36.078125 -16 C 33.8125 -14.390625 31.265625 -13.515625 28.40625 -13.515625 C 20.96875 -13.515625 15.125 -19.359375 15.125 -26.734375 C 15.125 -34.109375 20.96875 -39.953125 28.40625 -39.953125 C 31.265625 -39.953125 33.8125 -39.046875 36.078125 -37.46875 L 39.21875 -43.28125 C 36.15625 -45.359375 32.390625 -46.5625 28.40625 -46.5625 Z M 28.40625 -46.5625 "/></g></g></g></svg>